<?xml version="1.0" encoding="iso-8859-1"?>
<!-- Uploaded to: SVG Repo, www.svgrepo.com, Generator: SVG Repo Mixer Tools -->
<svg height="800px" width="800px" version="1.1" id="Layer_1" xmlns="http://www.w3.org/2000/svg" xmlns:xlink="http://www.w3.org/1999/xlink" 
	 viewBox="0 0 368.033 368.033" xml:space="preserve">
<g transform="translate(0 -1020.36)" shape-rendering="auto" image-rendering="auto" color-rendering="auto" color-interpolation="sRGB">
	<path style="fill:#5A3392;" d="M87.985,1020.36c-14.309,0-28.611,5.479-39.438,16.406l-14.187,14.406
		c-2.197,2.191-2.928,5.457-1.875,8.377l87.531,240.844v31.533c0,16.359,8.799,30.596,20.875,40.498
		c12.076,9.902,27.639,15.969,43.125,15.969c15.433,0,30.979-5.836,43.125-15.594c12.146-9.758,21.125-23.896,21.125-40.281v-31.531
		l87.281-241.438c1.053-2.92,0.322-6.186-1.875-8.377l-14.188-14.406c-21.652-21.85-57.254-21.85-78.906,0l-8.594,8.625
		l-8.531-8.625c-21.652-21.85-57.223-21.85-78.875,0l-8.5,8.625l-8.625-8.625C116.628,1025.842,102.294,1020.36,87.985,1020.36z"/>
	<path style="fill:#EBFEFF;" d="M87.985,1036.36c10.174,0,20.363,3.92,28.125,11.75l12.625,12.75l30.187,135.594H99.235
		L49.267,1058.86l10.625-10.75C67.654,1040.278,77.811,1036.36,87.985,1036.36L87.985,1036.36z"/>
	<path style="fill:#FFFFFF;" d="M184.017,1036.36c10.174,0,20.364,3.92,28.125,11.75l11.031,11.125l-30.5,137.219H175.36
		l-30.5-137.219l11.031-11.125C163.654,1040.278,173.842,1036.36,184.017,1036.36z"/>
	<path style="fill:#EBFEFF;" d="M279.986,1036.36c10.145,0,20.301,3.92,28.062,11.75l10.719,10.75l-49.781,137.594h-59.969
		l30.156-135.594l12.75-12.75C259.685,1040.278,269.841,1036.36,279.986,1036.36L279.986,1036.36z"/>
	<path style="fill:#FFFFFF;" d="M105.048,1212.391h158.188l-28.937,79.969H134.079L105.048,1212.391L105.048,1212.391z"/>
	<path style="fill:#29A3EC;" d="M135.954,1308.424h96.25v16.063h-96.25V1308.424z"/>
	<path style="fill:#EE746C;" d="M137.36,1340.549h93.656c-2.126,7.41-7.063,14.195-13.937,19.721
		c-9.298,7.467-21.829,12.154-33.063,12.154c-11.18,0-23.68-4.686-32.937-12.279c-6.68-5.479-11.502-12.279-13.719-19.594
		L137.36,1340.549z"/>
	<path style="fill:#EBFEFF;" d="M115.539,1217.696h137.206l-25.099,69.361h-86.926L115.539,1217.696L115.539,1217.696z"/>
	<path style="fill:#FB9761;" d="M151.385,1340.549h65.607c-1.489,5.189-4.948,9.943-9.763,13.813
		c-6.513,5.232-15.291,8.516-23.161,8.516c-7.832,0-16.588-3.283-23.073-8.602C156.316,1350.436,152.938,1345.672,151.385,1340.549
		L151.385,1340.549z"/>
	<path style="fill:#3CDEF6;" d="M135.954,1316.487h96.25v7.998h-96.25V1316.487z"/>
</g>
</svg>